<svg xmlns="http://www.w3.org/2000/svg" version="1.1" xmlns:xlink="http://www.w3.org/1999/xlink" xmlns:svgjs="http://svgjs.com/svgjs" width="1440" height="560" preserveAspectRatio="none" viewBox="0 0 1440 560"><g mask="url(&quot;#SvgjsMask1010&quot;)" fill="none"><path d="M0 492.01L10 459.4L20 406.36L30 410.81L40 446.75L50 412.28L60 410.14L70 389.76L80 360.58L90 314.45L100 358.46L110 288.62L120 345.36L130 332.01L140 267.72L150 276.62L160 214.15L170 198.75L180 170.86L190 132.15L200 75.23L210 131.75L220 89.06L230 23.71L240 78.39L250 112.41L260 145.73L270 178.52L280 109.75L290 139.19L300 159.15L310 118.57L320 127.13L330 143.77L340 116.94L350 66.19L360 87.75L370 102.78L380 99.98L390 56.24L400 37.17L410 59.94L420 111.77L430 72.47L440 74.56L450 140.79L460 125.84L470 191.8L480 148.92L490 82.6L500 150.41L510 212.07L520 247.88L530 270.8L540 304.75L550 349.39L560 382.06L570 356.3L580 369.6L590 304.42L600 266.45L610 202.48L620 241.64L630 196.09L640 221.34L650 199.88L660 217.3L670 169.03L680 200.18L690 213.57L700 145.76L710 139.6L720 187.26L730 252.54L740 294.8L750 229.06L760 197.3L770 160.89L780 162.98L790 157.34L800 191.62L810 232.12L820 295.31L830 350.66L840 391.17L850 440.72L860 380.09L870 431.56L880 473.87L890 458.08L900 475.43L910 488.58L920 419.97L930 357.19L940 355.07L950 349.1L960 338.76L970 395.94L980 343.13L990 333.01L1000 398.02L1010 367.17L1020 312.14L1030 286.27L1040 230.94L1050 212.8L1060 182.09L1070 134.8L1080 195.55L1090 234.26L1100 200.1L1110 223.62L1120 243.25L1130 209.5L1140 210.04L1150 222.88L1160 163.49L1170 156.53L1180 142.74L1190 108.3L1200 141.08L1210 147.82L1220 205.62L1230 174.63L1240 172.45L1250 147.39L1260 131.59L1270 143.58L1280 153.37L1290 128.4L1300 110.63L1310 168.02L1320 168.22L1330 187.08L1340 241.52L1350 298.27L1360 238.98L1370 257.65L1380 299.57L1390 359.05L1400 379.18L1410 382.84L1420 326.38L1430 365.56L1440 383.9" stroke="rgba(0, 255, 138, 0.24)" stroke-width="2"></path><path d="M0 492.01L10 459.4L20 406.36L30 410.81L40 446.75L50 412.28L60 410.14L70 389.76L80 360.58L90 314.45L100 358.46L110 288.62L120 345.36L130 332.01L140 267.72L150 276.62L160 214.15L170 198.75L180 170.86L190 132.15L200 75.23L210 131.75L220 89.06L230 23.71L240 78.39L250 112.41L260 145.73L270 178.52L280 109.75L290 139.19L300 159.15L310 118.57L320 127.13L330 143.77L340 116.94L350 66.19L360 87.75L370 102.78L380 99.98L390 56.24L400 37.17L410 59.94L420 111.77L430 72.47L440 74.56L450 140.79L460 125.84L470 191.8L480 148.92L490 82.6L500 150.41L510 212.07L520 247.88L530 270.8L540 304.75L550 349.39L560 382.06L570 356.3L580 369.6L590 304.42L600 266.45L610 202.48L620 241.64L630 196.09L640 221.34L650 199.88L660 217.3L670 169.03L680 200.18L690 213.57L700 145.76L710 139.6L720 187.26L730 252.54L740 294.8L750 229.06L760 197.3L770 160.89L780 162.98L790 157.34L800 191.62L810 232.12L820 295.31L830 350.66L840 391.17L850 440.72L860 380.09L870 431.56L880 473.87L890 458.08L900 475.43L910 488.58L920 419.97L930 357.19L940 355.07L950 349.1L960 338.76L970 395.94L980 343.13L990 333.01L1000 398.02L1010 367.17L1020 312.14L1030 286.27L1040 230.94L1050 212.8L1060 182.09L1070 134.8L1080 195.55L1090 234.26L1100 200.1L1110 223.62L1120 243.25L1130 209.5L1140 210.04L1150 222.88L1160 163.49L1170 156.53L1180 142.74L1190 108.3L1200 141.08L1210 147.82L1220 205.62L1230 174.63L1240 172.45L1250 147.39L1260 131.59L1270 143.58L1280 153.37L1290 128.4L1300 110.63L1310 168.02L1320 168.22L1330 187.08L1340 241.52L1350 298.27L1360 238.98L1370 257.65L1380 299.57L1390 359.05L1400 379.18L1410 382.84L1420 326.38L1430 365.56L1440 383.9L1440 560L0 560z" fill="url(#SvgjsLinearGradient1011)"></path></g><defs><mask id="SvgjsMask1010"><rect width="1440" height="560" fill="#ffffff"></rect></mask><linearGradient x1="50%" y1="0%" x2="50%" y2="100%" id="SvgjsLinearGradient1011"><stop stop-opacity="0.65" stop-color="rgba(0, 255, 138, 0.24)" offset="0"></stop><stop stop-opacity="0" stop-color="rgba(224, 255, 241, 0.24)" offset="0.8"></stop></linearGradient></defs></svg>